# Blender v2.79 (sub 0) OBJ File: 'character-v2.blend'
# www.blender.org
mtllib character-v2.mtl
o Cube
v 1.000000 0.000000 -1.000000
v 0.800128 0.693196 1.000000
v -0.800128 0.693196 1.000000
v -1.000000 0.000000 -1.000000
v 1.000000 2.000000 -0.999999
v 0.800127 1.800128 1.000000
v -0.800128 1.800128 1.000000
v -1.000000 2.000000 -1.000000
v 1.000000 0.000000 1.000000
v -1.000000 0.000000 1.000000
v 0.999999 2.000000 1.000001
v -1.000000 2.000000 1.000000
v 0.696828 0.796496 0.904002
v 0.696828 1.696828 0.904002
v -0.696828 1.696828 0.904002
v -0.696828 0.796496 0.904002
v 1.000000 0.000000 0.000000
v 0.000000 0.000000 -1.000000
v 0.000000 0.000000 1.000000
v -1.000000 0.000000 -0.000000
v 0.000000 0.000000 -0.000000
v 1.000000 0.000000 0.500000
v -0.500000 0.000000 -1.000000
v -0.500000 0.000000 1.000000
v -1.000000 0.000000 -0.500000
v 1.000000 0.000000 -0.500000
v 0.500000 0.000000 -1.000000
v 0.500000 0.000000 1.000000
v -1.000000 0.000000 0.500000
v 0.000000 0.000000 -0.500000
v 0.000000 0.000000 0.500000
v 0.500000 0.000000 0.500000
v 0.500000 0.000000 -0.500000
v -0.500000 0.000000 -0.500000
v -0.500000 0.000000 0.500000
v 1.000000 0.000000 0.750000
v -0.750000 0.000000 -1.000000
v -0.750000 0.000000 1.000000
v -1.000000 0.000000 -0.750000
v 1.000000 0.000000 -0.250000
v 0.250000 0.000000 -1.000000
v 0.250000 0.000000 1.000000
v -1.000000 0.000000 0.250000
v -0.750000 0.000000 -0.000000
v 0.250000 0.000000 -0.000000
v 0.000000 0.000000 -0.750000
v 0.000000 0.000000 0.250000
v 1.000000 0.000000 0.250000
v -0.250000 0.000000 -1.000000
v -0.250000 0.000000 1.000000
v -1.000000 0.000000 -0.250000
v 1.000000 0.000000 -0.750000
v 0.750000 0.000000 -1.000000
v 0.750000 0.000000 1.000000
v -1.000000 0.000000 0.750000
v -0.250000 0.000000 -0.000000
v 0.750000 0.000000 0.000000
v 0.000000 0.000000 -0.250000
v 0.000000 0.000000 0.750000
v 0.250000 0.000000 0.500000
v 0.750000 0.000000 0.500000
v 0.500000 0.000000 0.250000
v 0.500000 0.000000 0.750000
v 0.250000 0.000000 -0.500000
v 0.750000 0.000000 -0.500000
v 0.500000 0.000000 -0.750000
v 0.500000 0.000000 -0.250000
v -0.750000 0.000000 -0.500000
v -0.250000 0.000000 -0.500000
v -0.500000 0.000000 -0.750000
v -0.500000 0.000000 -0.250000
v -0.750000 0.000000 0.500000
v -0.250000 0.000000 0.500000
v -0.500000 0.000000 0.250000
v -0.500000 0.000000 0.750000
v -0.250000 0.000000 0.750000
v -0.250000 0.000000 0.250000
v -0.750000 0.000000 0.250000
v -0.250000 0.000000 -0.250000
v -0.250000 0.000000 -0.750000
v -0.750000 0.000000 -0.750000
v 0.750000 0.000000 -0.250000
v 0.750000 0.000000 -0.750000
v 0.250000 0.000000 -0.750000
v 0.750000 0.000000 0.750000
v 0.750000 0.000000 0.250000
v 0.250000 0.000000 0.250000
v 0.250000 0.000000 0.750000
v 0.250000 0.000000 -0.250000
v -0.750000 0.000000 -0.250000
v -0.750000 0.000000 0.750000
v -0.250000 -0.597322 -0.000000
v -0.500000 -0.597322 -0.000000
v 0.750000 -0.597322 0.000000
v 0.500000 -0.597322 -0.000000
v 0.500000 -0.597322 0.250000
v -0.500000 -0.597322 0.250000
v -0.750000 -0.597322 -0.000000
v 0.250000 -0.597322 -0.000000
v 0.500000 -0.597322 -0.250000
v -0.500000 -0.597322 -0.250000
v -0.250000 -0.597322 0.250000
v -0.750000 -0.597322 0.250000
v -0.250000 -0.597322 -0.250000
v 0.750000 -0.597322 -0.250000
v 0.750000 -0.597322 0.250000
v 0.250000 -0.597322 0.250000
v 0.250000 -0.597322 -0.250000
v -0.750000 -0.597322 -0.250000
vn 0.0000 -1.0000 0.0000
vn 0.0000 1.0000 0.0000
vn 1.0000 0.0000 0.0000
vn -1.0000 -0.0000 -0.0000
vn 0.0000 0.0000 -1.0000
vn -0.0000 -0.0000 1.0000
vn -0.6807 -0.0000 0.7325
vn -0.0000 -0.6807 0.7325
vn 0.6807 0.0000 0.7325
vn 0.0000 0.6807 0.7325
usemtl global
s off
f 91//1 38//1 10//1 55//1
f 5//2 8//2 12//2 11//2
f 1//3 5//3 11//3 9//3 36//3 22//3 48//3 17//3 40//3 26//3 52//3
f 10//4 12//4 8//4 4//4 39//4 25//4 51//4 20//4 43//4 29//4 55//4
f 5//5 1//5 53//5 27//5 41//5 18//5 49//5 23//5 37//5 4//5 8//5
f 2//6 3//6 10//6 38//6 24//6 50//6 19//6 42//6 28//6 54//6 9//6
f 6//6 2//6 9//6 11//6
f 3//6 7//6 12//6 10//6
f 7//6 6//6 11//6 12//6
f 2//7 6//7 14//7 13//7
f 6//8 7//8 15//8 14//8
f 7//9 3//9 16//9 15//9
f 3//10 2//10 13//10 16//10
f 90//1 44//1 20//1 51//1
f 89//1 45//1 21//1 58//1
f 88//1 42//1 19//1 59//1
f 87//1 60//1 31//1 47//1
f 86//1 61//1 32//1 62//1
f 85//1 54//1 28//1 63//1
f 84//1 64//1 30//1 46//1
f 83//1 65//1 33//1 66//1
f 62//6 87//6 107//6 96//6
f 81//1 68//1 25//1 39//1
f 80//1 69//1 34//1 70//1
f 79//3 56//3 92//3 104//3
f 78//1 72//1 29//1 43//1
f 77//1 73//1 35//1 74//1
f 76//1 50//1 24//1 75//1
f 73//1 76//1 75//1 35//1
f 31//1 59//1 76//1 73//1
f 59//1 19//1 50//1 76//1
f 44//4 90//4 109//4 98//4
f 21//1 47//1 77//1 56//1
f 47//1 31//1 73//1 77//1
f 44//1 78//1 43//1 20//1
f 56//3 77//3 102//3 92//3
f 74//1 35//1 72//1 78//1
f 69//1 79//1 71//1 34//1
f 30//1 58//1 79//1 69//1
f 58//1 21//1 56//1 79//1
f 49//1 80//1 70//1 23//1
f 18//1 46//1 80//1 49//1
f 46//1 30//1 69//1 80//1
f 37//1 81//1 39//1 4//1
f 23//1 70//1 81//1 37//1
f 70//1 34//1 68//1 81//1
f 65//1 82//1 67//1 33//1
f 26//1 40//1 82//1 65//1
f 40//1 17//1 57//1 82//1
f 53//1 83//1 66//1 27//1
f 1//1 52//1 83//1 53//1
f 52//1 26//1 65//1 83//1
f 41//1 84//1 46//1 18//1
f 27//1 66//1 84//1 41//1
f 66//1 33//1 64//1 84//1
f 61//1 85//1 63//1 32//1
f 22//1 36//1 85//1 61//1
f 36//1 9//1 54//1 85//1
f 90//5 71//5 101//5 109//5
f 17//1 48//1 86//1 57//1
f 48//1 22//1 61//1 86//1
f 45//1 87//1 47//1 21//1
f 57//3 86//3 106//3 94//3
f 62//1 32//1 60//1 87//1
f 60//1 88//1 59//1 31//1
f 32//1 63//1 88//1 60//1
f 63//1 28//1 42//1 88//1
f 64//1 89//1 58//1 30//1
f 33//1 67//1 89//1 64//1
f 82//3 57//3 94//3 105//3
f 68//1 90//1 51//1 25//1
f 34//1 71//1 90//1 68//1
f 71//5 79//5 104//5 101//5
f 72//1 91//1 55//1 29//1
f 35//1 75//1 91//1 72//1
f 75//1 24//1 38//1 91//1
f 105//1 94//1 95//1 100//1
f 104//1 92//1 93//1 101//1
f 92//1 102//1 97//1 93//1
f 93//1 97//1 103//1 98//1
f 94//1 106//1 96//1 95//1
f 95//1 96//1 107//1 99//1
f 100//1 95//1 99//1 108//1
f 101//1 93//1 98//1 109//1
f 89//5 67//5 100//5 108//5
f 74//6 78//6 103//6 97//6
f 87//4 45//4 99//4 107//4
f 67//5 82//5 105//5 100//5
f 78//4 44//4 98//4 103//4
f 86//6 62//6 96//6 106//6
f 45//4 89//4 108//4 99//4
f 77//6 74//6 97//6 102//6
usemtl skin
f 13//6 14//6 15//6 16//6
